<mxfile host="app.diagrams.net" agent="Mozilla/5.0 (Windows NT 10.0; Win64; x64) AppleWebKit/537.36 (KHTML, like Gecko) Chrome/133.0.0.0 Safari/537.36 Edg/133.0.0.0" version="26.0.13">
  <diagram name="Page-1" id="iKM8loQrZaTfKgztwfcb">
    <mxGraphModel dx="1865" dy="827" grid="1" gridSize="10" guides="1" tooltips="1" connect="1" arrows="1" fold="1" page="1" pageScale="1" pageWidth="850" pageHeight="1100" math="0" shadow="0">
      <root>
        <mxCell id="0" />
        <mxCell id="1" parent="0" />
        <mxCell id="2Vp_QEOIZirCAtkBIpaL-3" value="" style="edgeStyle=orthogonalEdgeStyle;rounded=0;orthogonalLoop=1;jettySize=auto;html=1;" edge="1" parent="1" source="2Vp_QEOIZirCAtkBIpaL-1" target="2Vp_QEOIZirCAtkBIpaL-2">
          <mxGeometry relative="1" as="geometry" />
        </mxCell>
        <mxCell id="2Vp_QEOIZirCAtkBIpaL-1" value="Start" style="rounded=1;whiteSpace=wrap;html=1;" vertex="1" parent="1">
          <mxGeometry x="330" y="40" width="120" height="60" as="geometry" />
        </mxCell>
        <mxCell id="2Vp_QEOIZirCAtkBIpaL-9" value="" style="edgeStyle=orthogonalEdgeStyle;rounded=0;orthogonalLoop=1;jettySize=auto;html=1;" edge="1" parent="1" source="2Vp_QEOIZirCAtkBIpaL-2" target="2Vp_QEOIZirCAtkBIpaL-8">
          <mxGeometry relative="1" as="geometry" />
        </mxCell>
        <mxCell id="2Vp_QEOIZirCAtkBIpaL-2" value="Enter the value for N" style="shape=parallelogram;perimeter=parallelogramPerimeter;whiteSpace=wrap;html=1;fixedSize=1;rounded=1;" vertex="1" parent="1">
          <mxGeometry x="240" y="140" width="320" height="60" as="geometry" />
        </mxCell>
        <mxCell id="2Vp_QEOIZirCAtkBIpaL-10" value="" style="edgeStyle=orthogonalEdgeStyle;rounded=0;orthogonalLoop=1;jettySize=auto;html=1;" edge="1" parent="1" source="2Vp_QEOIZirCAtkBIpaL-8">
          <mxGeometry relative="1" as="geometry">
            <mxPoint x="400" y="310" as="targetPoint" />
          </mxGeometry>
        </mxCell>
        <mxCell id="2Vp_QEOIZirCAtkBIpaL-8" value="i=0&lt;div&gt;f=0&lt;/div&gt;&lt;div&gt;s=1&lt;/div&gt;&lt;div&gt;t=f+s&lt;/div&gt;" style="rounded=0;whiteSpace=wrap;html=1;" vertex="1" parent="1">
          <mxGeometry x="340" y="230" width="120" height="60" as="geometry" />
        </mxCell>
        <mxCell id="2Vp_QEOIZirCAtkBIpaL-13" value="" style="edgeStyle=orthogonalEdgeStyle;rounded=0;orthogonalLoop=1;jettySize=auto;html=1;" edge="1" parent="1" source="2Vp_QEOIZirCAtkBIpaL-11" target="2Vp_QEOIZirCAtkBIpaL-12">
          <mxGeometry relative="1" as="geometry" />
        </mxCell>
        <mxCell id="2Vp_QEOIZirCAtkBIpaL-11" value="Print F,S,T" style="shape=parallelogram;perimeter=parallelogramPerimeter;whiteSpace=wrap;html=1;fixedSize=1;" vertex="1" parent="1">
          <mxGeometry x="210" y="310" width="430" height="60" as="geometry" />
        </mxCell>
        <mxCell id="2Vp_QEOIZirCAtkBIpaL-15" value="" style="edgeStyle=orthogonalEdgeStyle;rounded=0;orthogonalLoop=1;jettySize=auto;html=1;" edge="1" parent="1" source="2Vp_QEOIZirCAtkBIpaL-12">
          <mxGeometry relative="1" as="geometry">
            <mxPoint x="342.5" y="670" as="targetPoint" />
          </mxGeometry>
        </mxCell>
        <mxCell id="2Vp_QEOIZirCAtkBIpaL-19" value="Yes" style="edgeLabel;html=1;align=center;verticalAlign=middle;resizable=0;points=[];" vertex="1" connectable="0" parent="2Vp_QEOIZirCAtkBIpaL-15">
          <mxGeometry x="-0.2364" y="1" relative="1" as="geometry">
            <mxPoint as="offset" />
          </mxGeometry>
        </mxCell>
        <mxCell id="2Vp_QEOIZirCAtkBIpaL-20" style="edgeStyle=orthogonalEdgeStyle;rounded=0;orthogonalLoop=1;jettySize=auto;html=1;exitX=0;exitY=0.5;exitDx=0;exitDy=0;entryX=0;entryY=0;entryDx=0;entryDy=0;" edge="1" parent="1" source="2Vp_QEOIZirCAtkBIpaL-12" target="2Vp_QEOIZirCAtkBIpaL-16">
          <mxGeometry relative="1" as="geometry">
            <mxPoint x="190" y="710" as="targetPoint" />
          </mxGeometry>
        </mxCell>
        <mxCell id="2Vp_QEOIZirCAtkBIpaL-22" value="" style="edgeStyle=orthogonalEdgeStyle;rounded=0;orthogonalLoop=1;jettySize=auto;html=1;" edge="1" parent="1" source="2Vp_QEOIZirCAtkBIpaL-12" target="2Vp_QEOIZirCAtkBIpaL-21">
          <mxGeometry relative="1" as="geometry" />
        </mxCell>
        <mxCell id="2Vp_QEOIZirCAtkBIpaL-23" value="No" style="edgeLabel;html=1;align=center;verticalAlign=middle;resizable=0;points=[];" vertex="1" connectable="0" parent="2Vp_QEOIZirCAtkBIpaL-22">
          <mxGeometry x="-0.0363" relative="1" as="geometry">
            <mxPoint as="offset" />
          </mxGeometry>
        </mxCell>
        <mxCell id="2Vp_QEOIZirCAtkBIpaL-12" value="t&amp;lt;n" style="rhombus;whiteSpace=wrap;html=1;" vertex="1" parent="1">
          <mxGeometry x="220" y="440" width="245" height="120" as="geometry" />
        </mxCell>
        <mxCell id="2Vp_QEOIZirCAtkBIpaL-16" value="f=s&lt;div&gt;s=t&lt;/div&gt;&lt;div&gt;t=f+s&lt;/div&gt;" style="whiteSpace=wrap;html=1;" vertex="1" parent="1">
          <mxGeometry x="193.75" y="670" width="297.5" height="130" as="geometry" />
        </mxCell>
        <mxCell id="2Vp_QEOIZirCAtkBIpaL-21" value="End" style="rounded=1;whiteSpace=wrap;html=1;" vertex="1" parent="1">
          <mxGeometry x="607.5" y="470" width="120" height="60" as="geometry" />
        </mxCell>
      </root>
    </mxGraphModel>
  </diagram>
</mxfile>
